<svg xmlns="http://www.w3.org/2000/svg" xmlns:xlink="http://www.w3.org/1999/xlink" width="1450" height="2508" contentScriptType="application/ecmascript" contentStyleType="text/css" style="width:1450px;height:2508px" preserveAspectRatio="none" version="1.1" viewBox="0 0 1450 2508" zoomAndPan="magnify"><defs><filter id="f1j2xdxjcgtynb" width="300%" height="300%" x="-1" y="-1"><feGaussianBlur result="blurOut" stdDeviation="2"/><feColorMatrix in="blurOut" result="blurOut2" type="matrix" values="0 0 0 0 0 0 0 0 0 0 0 0 0 0 0 0 0 0 .4 0"/><feOffset dx="4" dy="4" in="blurOut2" result="blurOut3"/><feBlend in="SourceGraphic" in2="blurOut3" mode="normal"/></filter></defs><g><rect style="stroke:#a80036;stroke-width:1" width="294" height="2493.242" x="24" y="4" fill="#DDD"/><text x="126" y="16.067" fill="#000" font-family="sans-serif" font-size="13" font-weight="bold" lengthAdjust="spacingAndGlyphs" textLength="90">Government</text><rect style="stroke:#a80036;stroke-width:1" width="380.5" height="2493.242" x="728" y="4" fill="#DDD"/><text x="833.25" y="16.067" fill="#000" font-family="sans-serif" font-size="13" font-weight="bold" lengthAdjust="spacingAndGlyphs" textLength="170">Acme Construction Inc.</text><rect style="stroke:#a80036;stroke-width:1" width="266.5" height="2493.242" x="1150.5" y="4" fill="#DDD"/><text x="1269.75" y="16.067" fill="#000" font-family="sans-serif" font-size="13" font-weight="bold" lengthAdjust="spacingAndGlyphs" textLength="28">City</text><rect style="stroke:#000;stroke-width:2" width="646" height="117.531" x="468.5" y="2065.914" fill="#FFF" filter="url(#f1j2xdxjcgtynb)"/><line style="stroke:#a80036;stroke-width:1;stroke-dasharray:5,5" x1="121" x2="121" y1="106.43" y2="2410.945"/><line style="stroke:#a80036;stroke-width:1;stroke-dasharray:5,5" x1="269" x2="269" y1="106.43" y2="2410.945"/><line style="stroke:#a80036;stroke-width:1;stroke-dasharray:5,5" x1="559.5" x2="559.5" y1="106.43" y2="2410.945"/><line style="stroke:#a80036;stroke-width:1;stroke-dasharray:5,5" x1="793" x2="793" y1="106.43" y2="2410.945"/><line style="stroke:#a80036;stroke-width:1;stroke-dasharray:5,5" x1="1067.5" x2="1067.5" y1="106.43" y2="2410.945"/><line style="stroke:#a80036;stroke-width:1;stroke-dasharray:5,5" x1="1228.5" x2="1228.5" y1="106.43" y2="2410.945"/><line style="stroke:#a80036;stroke-width:1;stroke-dasharray:5,5" x1="1377" x2="1377" y1="106.43" y2="2410.945"/><rect style="stroke:#a80036;stroke-width:1.5" width="143" height="30.297" x="48" y="71.133" fill="#FEFECE" filter="url(#f1j2xdxjcgtynb)"/><text x="55" y="91.128" fill="#000" font-family="sans-serif" font-size="14" lengthAdjust="spacingAndGlyphs" textLength="129">Corporate Registry</text><rect style="stroke:#a80036;stroke-width:1.5" width="143" height="30.297" x="48" y="2409.945" fill="#FEFECE" filter="url(#f1j2xdxjcgtynb)"/><text x="55" y="2429.94" fill="#000" font-family="sans-serif" font-size="14" lengthAdjust="spacingAndGlyphs" textLength="129">Corporate Registry</text><rect style="stroke:#a80036;stroke-width:1.5" width="45" height="30.297" x="245" y="71.133" fill="#FEFECE" filter="url(#f1j2xdxjcgtynb)"/><text x="252" y="91.128" fill="#000" font-family="sans-serif" font-size="14" lengthAdjust="spacingAndGlyphs" textLength="31">WSA</text><rect style="stroke:#a80036;stroke-width:1.5" width="45" height="30.297" x="245" y="2409.945" fill="#FEFECE" filter="url(#f1j2xdxjcgtynb)"/><text x="252" y="2429.94" fill="#000" font-family="sans-serif" font-size="14" lengthAdjust="spacingAndGlyphs" textLength="31">WSA</text><rect style="stroke:#a80036;stroke-width:1.5" width="118" height="30.297" x="498.5" y="71.133" fill="#FEFECE" filter="url(#f1j2xdxjcgtynb)"/><text x="505.5" y="91.128" fill="#000" font-family="sans-serif" font-size="14" lengthAdjust="spacingAndGlyphs" textLength="104">Building Owner</text><rect style="stroke:#a80036;stroke-width:1.5" width="118" height="30.297" x="498.5" y="2409.945" fill="#FEFECE" filter="url(#f1j2xdxjcgtynb)"/><text x="505.5" y="2429.94" fill="#000" font-family="sans-serif" font-size="14" lengthAdjust="spacingAndGlyphs" textLength="104">Building Owner</text><rect style="stroke:#a80036;stroke-width:1.5" width="79" height="30.297" x="752" y="71.133" fill="#FEFECE" filter="url(#f1j2xdxjcgtynb)"/><text x="759" y="91.128" fill="#000" font-family="sans-serif" font-size="14" lengthAdjust="spacingAndGlyphs" textLength="65">Company</text><rect style="stroke:#a80036;stroke-width:1.5" width="79" height="30.297" x="752" y="2409.945" fill="#FEFECE" filter="url(#f1j2xdxjcgtynb)"/><text x="759" y="2429.94" fill="#000" font-family="sans-serif" font-size="14" lengthAdjust="spacingAndGlyphs" textLength="65">Company</text><text x="1030.5" y="103.128" fill="#000" font-family="sans-serif" font-size="14" lengthAdjust="spacingAndGlyphs" textLength="68">Employee</text><ellipse cx="1067.5" cy="33.133" fill="#FEFECE" filter="url(#f1j2xdxjcgtynb)" rx="8" ry="8" style="stroke:#a80036;stroke-width:2"/><path fill="#FEFECE" d="M1067.5,41.1328 L1067.5,68.1328 M1054.5,49.1328 L1080.5,49.1328 M1067.5,68.1328 L1054.5,83.1328 M1067.5,68.1328 L1080.5,83.1328" filter="url(#f1j2xdxjcgtynb)" style="stroke:#a80036;stroke-width:2"/><text x="1030.5" y="2422.94" fill="#000" font-family="sans-serif" font-size="14" lengthAdjust="spacingAndGlyphs" textLength="68">Employee</text><ellipse cx="1067.5" cy="2436.242" fill="#FEFECE" filter="url(#f1j2xdxjcgtynb)" rx="8" ry="8" style="stroke:#a80036;stroke-width:2"/><path fill="#FEFECE" d="M1067.5,2444.2422 L1067.5,2471.2422 M1054.5,2452.2422 L1080.5,2452.2422 M1067.5,2471.2422 L1054.5,2486.2422 M1067.5,2471.2422 L1080.5,2486.2422" filter="url(#f1j2xdxjcgtynb)" style="stroke:#a80036;stroke-width:2"/><rect style="stroke:#a80036;stroke-width:1.5" width="104" height="30.297" x="1174.5" y="71.133" fill="#FEFECE" filter="url(#f1j2xdxjcgtynb)"/><text x="1181.5" y="91.128" fill="#000" font-family="sans-serif" font-size="14" lengthAdjust="spacingAndGlyphs" textLength="90">Permits Dept</text><rect style="stroke:#a80036;stroke-width:1.5" width="104" height="30.297" x="1174.5" y="2409.945" fill="#FEFECE" filter="url(#f1j2xdxjcgtynb)"/><text x="1181.5" y="2429.94" fill="#000" font-family="sans-serif" font-size="14" lengthAdjust="spacingAndGlyphs" textLength="90">Permits Dept</text><text x="1342" y="103.128" fill="#000" font-family="sans-serif" font-size="14" lengthAdjust="spacingAndGlyphs" textLength="65">Inspector</text><ellipse cx="1377.5" cy="33.133" fill="#FEFECE" filter="url(#f1j2xdxjcgtynb)" rx="8" ry="8" style="stroke:#a80036;stroke-width:2"/><path fill="#FEFECE" d="M1377.5,41.1328 L1377.5,68.1328 M1364.5,49.1328 L1390.5,49.1328 M1377.5,68.1328 L1364.5,83.1328 M1377.5,68.1328 L1390.5,83.1328" filter="url(#f1j2xdxjcgtynb)" style="stroke:#a80036;stroke-width:2"/><text x="1342" y="2422.94" fill="#000" font-family="sans-serif" font-size="14" lengthAdjust="spacingAndGlyphs" textLength="65">Inspector</text><ellipse cx="1377.5" cy="2436.242" fill="#FEFECE" filter="url(#f1j2xdxjcgtynb)" rx="8" ry="8" style="stroke:#a80036;stroke-width:2"/><path fill="#FEFECE" d="M1377.5,2444.2422 L1377.5,2471.2422 M1364.5,2452.2422 L1390.5,2452.2422 M1377.5,2471.2422 L1364.5,2486.2422 M1377.5,2471.2422 L1390.5,2486.2422" filter="url(#f1j2xdxjcgtynb)" style="stroke:#a80036;stroke-width:2"/><rect style="stroke:#eee;stroke-width:1" width="1435" height="3" x="3" y="139.324" fill="#EEE" filter="url(#f1j2xdxjcgtynb)"/><line style="stroke:#000;stroke-width:1" x1="3" x2="1438" y1="139.324" y2="139.324"/><line style="stroke:#000;stroke-width:1" x1="3" x2="1438" y1="142.324" y2="142.324"/><rect style="stroke:#000;stroke-width:2" width="483" height="27.789" x="479" y="126.43" fill="#EEE" filter="url(#f1j2xdxjcgtynb)"/><text x="485" y="146.209" fill="#000" font-family="sans-serif" font-size="17" font-weight="bold" lengthAdjust="spacingAndGlyphs" textLength="469">Story 1 - Acme Registers with Corporate Registry</text><polygon fill="#A80036" points="132.5 181.219 122.5 185.219 132.5 189.219 128.5 185.219" style="stroke:#a80036;stroke-width:1"/><line style="stroke:#a80036;stroke-width:1" x1="126.5" x2="792.5" y1="185.219" y2="185.219"/><text x="138.5" y="180.286" fill="#000" font-family="sans-serif" font-size="13" lengthAdjust="spacingAndGlyphs" textLength="200">Request Corporate Registration</text><line style="stroke:#a80036;stroke-width:1" x1="121.5" x2="163.5" y1="214.484" y2="214.484"/><line style="stroke:#a80036;stroke-width:1" x1="163.5" x2="163.5" y1="214.484" y2="227.484"/><line style="stroke:#a80036;stroke-width:1" x1="122.5" x2="163.5" y1="227.484" y2="227.484"/><polygon fill="#A80036" points="132.5 223.484 122.5 227.484 132.5 231.484 128.5 227.484" style="stroke:#a80036;stroke-width:1"/><text x="128.5" y="209.418" fill="#000" font-family="sans-serif" font-size="13" lengthAdjust="spacingAndGlyphs" textLength="48">internal</text><polygon fill="#A80036" points="781.5 252.484 791.5 256.484 781.5 260.484 785.5 256.484" style="stroke:#a80036;stroke-width:1"/><line style="stroke:#a80036;stroke-width:1" x1="121.5" x2="787.5" y1="256.484" y2="256.484"/><text x="128.5" y="251.551" fill="#000" font-family="sans-serif" font-size="13" lengthAdjust="spacingAndGlyphs" textLength="181">Send Corporate Registration</text><line style="stroke:#a80036;stroke-width:1" x1="793.5" x2="835.5" y1="285.75" y2="285.75"/><line style="stroke:#a80036;stroke-width:1" x1="835.5" x2="835.5" y1="285.75" y2="298.75"/><line style="stroke:#a80036;stroke-width:1" x1="794.5" x2="835.5" y1="298.75" y2="298.75"/><polygon fill="#A80036" points="804.5 294.75 794.5 298.75 804.5 302.75 800.5 298.75" style="stroke:#a80036;stroke-width:1"/><text x="800.5" y="280.684" fill="#000" font-family="sans-serif" font-size="13" lengthAdjust="spacingAndGlyphs" textLength="149">Store Corp Registration</text><rect style="stroke:#eee;stroke-width:1" width="1435" height="3" x="3" y="329.644" fill="#EEE" filter="url(#f1j2xdxjcgtynb)"/><line style="stroke:#000;stroke-width:1" x1="3" x2="1438" y1="329.644" y2="329.644"/><line style="stroke:#000;stroke-width:1" x1="3" x2="1438" y1="332.644" y2="332.644"/><rect style="stroke:#000;stroke-width:2" width="444" height="27.789" x="498.5" y="316.75" fill="#EEE" filter="url(#f1j2xdxjcgtynb)"/><text x="504.5" y="336.53" fill="#000" font-family="sans-serif" font-size="17" font-weight="bold" lengthAdjust="spacingAndGlyphs" textLength="430">Story 2 - Acme Obtains WSA Clearance Letter</text><line style="stroke:#a80036;stroke-width:1" x1="793.5" x2="835.5" y1="375.672" y2="375.672"/><line style="stroke:#a80036;stroke-width:1" x1="835.5" x2="835.5" y1="375.672" y2="388.672"/><line style="stroke:#a80036;stroke-width:1" x1="794.5" x2="835.5" y1="388.672" y2="388.672"/><polygon fill="#A80036" points="804.5 384.672 794.5 388.672 804.5 392.672 800.5 388.672" style="stroke:#a80036;stroke-width:1"/><text x="800.5" y="370.606" fill="#000" font-family="sans-serif" font-size="13" lengthAdjust="spacingAndGlyphs" textLength="163">Assemble CL applications</text><polygon fill="#A80036" points="280.5 413.672 270.5 417.672 280.5 421.672 276.5 417.672" style="stroke:#a80036;stroke-width:1"/><line style="stroke:#a80036;stroke-width:1" x1="274.5" x2="792.5" y1="417.672" y2="417.672"/><text x="286.5" y="412.739" fill="#000" font-family="sans-serif" font-size="13" lengthAdjust="spacingAndGlyphs" textLength="183">Send CL Application Request</text><line style="stroke:#a80036;stroke-width:1" x1="269.5" x2="311.5" y1="446.938" y2="446.938"/><line style="stroke:#a80036;stroke-width:1" x1="311.5" x2="311.5" y1="446.938" y2="459.938"/><line style="stroke:#a80036;stroke-width:1" x1="270.5" x2="311.5" y1="459.938" y2="459.938"/><polygon fill="#A80036" points="280.5 455.938 270.5 459.938 280.5 463.938 276.5 459.938" style="stroke:#a80036;stroke-width:1"/><text x="276.5" y="441.872" fill="#000" font-family="sans-serif" font-size="13" lengthAdjust="spacingAndGlyphs" textLength="276">Confirm application detail and assemble CL</text><polygon fill="#A80036" points="781.5 484.938 791.5 488.938 781.5 492.938 785.5 488.938" style="stroke:#a80036;stroke-width:1"/><line style="stroke:#a80036;stroke-width:1" x1="269.5" x2="787.5" y1="488.938" y2="488.938"/><text x="276.5" y="484.004" fill="#000" font-family="sans-serif" font-size="13" lengthAdjust="spacingAndGlyphs" textLength="192">Send Clearance Letter &lt;vCL&gt;</text><line style="stroke:#a80036;stroke-width:1" x1="793.5" x2="835.5" y1="518.203" y2="518.203"/><line style="stroke:#a80036;stroke-width:1" x1="835.5" x2="835.5" y1="518.203" y2="531.203"/><line style="stroke:#a80036;stroke-width:1" x1="794.5" x2="835.5" y1="531.203" y2="531.203"/><polygon fill="#A80036" points="804.5 527.203 794.5 531.203 804.5 535.203 800.5 531.203" style="stroke:#a80036;stroke-width:1"/><text x="800.5" y="513.137" fill="#000" font-family="sans-serif" font-size="13" lengthAdjust="spacingAndGlyphs" textLength="145">Store Clearance Letter</text><polygon fill="#A80036" points="280.5 556.203 270.5 560.203 280.5 564.203 276.5 560.203" style="stroke:#a80036;stroke-width:1"/><line style="stroke:#a80036;stroke-width:1" x1="274.5" x2="792.5" y1="560.203" y2="560.203"/><text x="286.5" y="555.27" fill="#000" font-family="sans-serif" font-size="13" lengthAdjust="spacingAndGlyphs" textLength="208">Subscribe to Revocation for CLID</text><polygon fill="#A80036" points="781.5 585.336 791.5 589.336 781.5 593.336 785.5 589.336" style="stroke:#a80036;stroke-width:1"/><line style="stroke:#a80036;stroke-width:1" x1="269.5" x2="787.5" y1="589.336" y2="589.336"/><text x="276.5" y="584.403" fill="#000" font-family="sans-serif" font-size="13" lengthAdjust="spacingAndGlyphs" textLength="131">Confirm subscription</text><rect style="stroke:#eee;stroke-width:1" width="1435" height="3" x="3" y="620.363" fill="#EEE" filter="url(#f1j2xdxjcgtynb)"/><line style="stroke:#000;stroke-width:1" x1="3" x2="1438" y1="620.363" y2="620.363"/><line style="stroke:#000;stroke-width:1" x1="3" x2="1438" y1="623.363" y2="623.363"/><rect style="stroke:#000;stroke-width:2" width="334" height="27.789" x="553.5" y="607.469" fill="#EEE" filter="url(#f1j2xdxjcgtynb)"/><text x="559.5" y="627.249" fill="#000" font-family="sans-serif" font-size="17" font-weight="bold" lengthAdjust="spacingAndGlyphs" textLength="320">Story 3 - # Home Addition Project</text><polygon fill="#FBFB77" points="484 650.258 484 765.258 1303 765.258 1303 660.258 1293 650.258 484 650.258" filter="url(#f1j2xdxjcgtynb)" style="stroke:#a80036;stroke-width:1"/><line style="stroke:#a80036;stroke-width:1" x1="1293" x2="1293" y1="650.258" y2="660.258"/><line style="stroke:#a80036;stroke-width:1" x1="1303" x2="1293" y1="660.258" y2="660.258"/><text x="638.5" y="667.325" fill="#000" font-family="sans-serif" font-size="13" lengthAdjust="spacingAndGlyphs" textLength="459">A Homeowner has decided to add an extension to her residential home.</text><text x="638.5" y="682.457" fill="#000" font-family="sans-serif" font-size="13" lengthAdjust="spacingAndGlyphs" textLength="419">After completing her financial and architectural dependencies she</text><text x="638.5" y="697.59" fill="#000" font-family="sans-serif" font-size="13" lengthAdjust="spacingAndGlyphs" textLength="459">obtains a Residential Building Permit from the City Building Department.</text><text x="638.5" y="712.723" fill="#000" font-family="sans-serif" font-size="13" lengthAdjust="spacingAndGlyphs" textLength="473">She has also contracted with Acme Construction Company for the project.</text><text x="638.5" y="727.856" fill="#000" font-family="sans-serif" font-size="13" lengthAdjust="spacingAndGlyphs" textLength="497">When the work commences she needs to verifies Acme employees that arrive</text><text x="638.5" y="742.989" fill="#000" font-family="sans-serif" font-size="13" lengthAdjust="spacingAndGlyphs" textLength="463">onsite each day for Acme credentials which include proof of employment</text><text x="638.5" y="758.122" fill="#000" font-family="sans-serif" font-size="13" lengthAdjust="spacingAndGlyphs" textLength="253">as well as Acme&apos;s WSA clearance letter.</text><line style="stroke:#a80036;stroke-width:1" x1="559.5" x2="601.5" y1="796.32" y2="796.32"/><line style="stroke:#a80036;stroke-width:1" x1="601.5" x2="601.5" y1="796.32" y2="809.32"/><line style="stroke:#a80036;stroke-width:1" x1="560.5" x2="601.5" y1="809.32" y2="809.32"/><polygon fill="#A80036" points="570.5 805.32 560.5 809.32 570.5 813.32 566.5 809.32" style="stroke:#a80036;stroke-width:1"/><text x="566.5" y="791.254" fill="#000" font-family="sans-serif" font-size="13" lengthAdjust="spacingAndGlyphs" textLength="220">Assemble building permit package</text><polygon fill="#A80036" points="1216.5 834.32 1226.5 838.32 1216.5 842.32 1220.5 838.32" style="stroke:#a80036;stroke-width:1"/><line style="stroke:#a80036;stroke-width:1" x1="559.5" x2="1222.5" y1="838.32" y2="838.32"/><text x="566.5" y="833.387" fill="#000" font-family="sans-serif" font-size="13" lengthAdjust="spacingAndGlyphs" textLength="152">Request Building Permit</text><line style="stroke:#a80036;stroke-width:1" x1="1228.5" x2="1270.5" y1="867.586" y2="867.586"/><line style="stroke:#a80036;stroke-width:1" x1="1270.5" x2="1270.5" y1="867.586" y2="880.586"/><line style="stroke:#a80036;stroke-width:1" x1="1229.5" x2="1270.5" y1="880.586" y2="880.586"/><polygon fill="#A80036" points="1239.5 876.586 1229.5 880.586 1239.5 884.586 1235.5 880.586" style="stroke:#a80036;stroke-width:1"/><text x="1235.5" y="862.52" fill="#000" font-family="sans-serif" font-size="13" lengthAdjust="spacingAndGlyphs" textLength="135">Analyze and Approve</text><polygon fill="#A80036" points="570.5 905.586 560.5 909.586 570.5 913.586 566.5 909.586" style="stroke:#a80036;stroke-width:1"/><line style="stroke:#a80036;stroke-width:1" x1="564.5" x2="1227.5" y1="909.586" y2="909.586"/><text x="576.5" y="904.653" fill="#000" font-family="sans-serif" font-size="13" lengthAdjust="spacingAndGlyphs" textLength="208">Send Building Permit &lt;vPermit&gt;</text><line style="stroke:#a80036;stroke-width:1" x1="559.5" x2="601.5" y1="938.852" y2="938.852"/><line style="stroke:#a80036;stroke-width:1" x1="601.5" x2="601.5" y1="938.852" y2="951.852"/><line style="stroke:#a80036;stroke-width:1" x1="560.5" x2="601.5" y1="951.852" y2="951.852"/><polygon fill="#A80036" points="570.5 947.852 560.5 951.852 570.5 955.852 566.5 951.852" style="stroke:#a80036;stroke-width:1"/><text x="566.5" y="933.786" fill="#000" font-family="sans-serif" font-size="13" lengthAdjust="spacingAndGlyphs" textLength="88">Store vPermit</text><rect style="stroke:#eee;stroke-width:1" width="1435" height="3" x="3" y="982.746" fill="#EEE" filter="url(#f1j2xdxjcgtynb)"/><line style="stroke:#000;stroke-width:1" x1="3" x2="1438" y1="982.746" y2="982.746"/><line style="stroke:#000;stroke-width:1" x1="3" x2="1438" y1="985.746" y2="985.746"/><rect style="stroke:#000;stroke-width:2" width="660" height="27.789" x="390.5" y="969.852" fill="#EEE" filter="url(#f1j2xdxjcgtynb)"/><text x="396.5" y="989.631" fill="#000" font-family="sans-serif" font-size="17" font-weight="bold" lengthAdjust="spacingAndGlyphs" textLength="646">Story 4 - Acme Provides Clearance Letter For Authorized Employees</text><polygon fill="#A80036" points="1055.5 1024.641 1065.5 1028.641 1055.5 1032.641 1059.5 1028.641" style="stroke:#a80036;stroke-width:1"/><line style="stroke:#a80036;stroke-width:1" x1="793.5" x2="1061.5" y1="1028.641" y2="1028.641"/><text x="800.5" y="1023.707" fill="#000" font-family="sans-serif" font-size="13" lengthAdjust="spacingAndGlyphs" textLength="242">Send copy of Clearance Letter &lt;vCL&gt;</text><line style="stroke:#a80036;stroke-width:1" x1="1067.5" x2="1109.5" y1="1057.906" y2="1057.906"/><line style="stroke:#a80036;stroke-width:1" x1="1109.5" x2="1109.5" y1="1057.906" y2="1070.906"/><line style="stroke:#a80036;stroke-width:1" x1="1068.5" x2="1109.5" y1="1070.906" y2="1070.906"/><polygon fill="#A80036" points="1078.5 1066.906 1068.5 1070.906 1078.5 1074.906 1074.5 1070.906" style="stroke:#a80036;stroke-width:1"/><text x="1074.5" y="1052.84" fill="#000" font-family="sans-serif" font-size="13" lengthAdjust="spacingAndGlyphs" textLength="62">Store vCL</text><rect style="stroke:#eee;stroke-width:1" width="1435" height="3" x="3" y="1101.801" fill="#EEE" filter="url(#f1j2xdxjcgtynb)"/><line style="stroke:#000;stroke-width:1" x1="3" x2="1438" y1="1101.801" y2="1101.801"/><line style="stroke:#000;stroke-width:1" x1="3" x2="1438" y1="1104.801" y2="1104.801"/><rect style="stroke:#000;stroke-width:2" width="467" height="27.789" x="487" y="1088.906" fill="#EEE" filter="url(#f1j2xdxjcgtynb)"/><text x="493" y="1108.686" fill="#000" font-family="sans-serif" font-size="17" font-weight="bold" lengthAdjust="spacingAndGlyphs" textLength="453">Story 6 - Commercial Building Permit Acquisition</text><polygon fill="#FBFB77" points="484 1131.695 484 1216.695 1303 1216.695 1303 1141.695 1293 1131.695 484 1131.695" filter="url(#f1j2xdxjcgtynb)" style="stroke:#a80036;stroke-width:1"/><line style="stroke:#a80036;stroke-width:1" x1="1293" x2="1293" y1="1131.695" y2="1141.695"/><line style="stroke:#a80036;stroke-width:1" x1="1303" x2="1293" y1="1141.695" y2="1141.695"/><text x="625" y="1148.762" fill="#000" font-family="sans-serif" font-size="13" lengthAdjust="spacingAndGlyphs" textLength="524">The entity owning a new shopping plaza has registered with the corporate registry.</text><text x="625" y="1163.895" fill="#000" font-family="sans-serif" font-size="13" lengthAdjust="spacingAndGlyphs" textLength="502">The owner of a new shopping plaza has just received financial and architectural</text><text x="625" y="1179.028" fill="#000" font-family="sans-serif" font-size="13" lengthAdjust="spacingAndGlyphs" textLength="459">approvals for proceeding with the project. He obtains a new Commercial</text><text x="625" y="1194.161" fill="#000" font-family="sans-serif" font-size="13" lengthAdjust="spacingAndGlyphs" textLength="323">Building Permit from the City Building Department.</text><line style="stroke:#a80036;stroke-width:1" x1="559.5" x2="601.5" y1="1247.492" y2="1247.492"/><line style="stroke:#a80036;stroke-width:1" x1="601.5" x2="601.5" y1="1247.492" y2="1260.492"/><line style="stroke:#a80036;stroke-width:1" x1="560.5" x2="601.5" y1="1260.492" y2="1260.492"/><polygon fill="#A80036" points="570.5 1256.492 560.5 1260.492 570.5 1264.492 566.5 1260.492" style="stroke:#a80036;stroke-width:1"/><text x="566.5" y="1242.426" fill="#000" font-family="sans-serif" font-size="13" lengthAdjust="spacingAndGlyphs" textLength="220">Assemble building permit package</text><polygon fill="#A80036" points="1216.5 1285.492 1226.5 1289.492 1216.5 1293.492 1220.5 1289.492" style="stroke:#a80036;stroke-width:1"/><line style="stroke:#a80036;stroke-width:1" x1="559.5" x2="1222.5" y1="1289.492" y2="1289.492"/><text x="566.5" y="1284.559" fill="#000" font-family="sans-serif" font-size="13" lengthAdjust="spacingAndGlyphs" textLength="152">Request Building Permit</text><line style="stroke:#a80036;stroke-width:1" x1="1228.5" x2="1270.5" y1="1318.758" y2="1318.758"/><line style="stroke:#a80036;stroke-width:1" x1="1270.5" x2="1270.5" y1="1318.758" y2="1331.758"/><line style="stroke:#a80036;stroke-width:1" x1="1229.5" x2="1270.5" y1="1331.758" y2="1331.758"/><polygon fill="#A80036" points="1239.5 1327.758 1229.5 1331.758 1239.5 1335.758 1235.5 1331.758" style="stroke:#a80036;stroke-width:1"/><text x="1235.5" y="1313.692" fill="#000" font-family="sans-serif" font-size="13" lengthAdjust="spacingAndGlyphs" textLength="135">Analyze and Approve</text><polygon fill="#A80036" points="570.5 1356.758 560.5 1360.758 570.5 1364.758 566.5 1360.758" style="stroke:#a80036;stroke-width:1"/><line style="stroke:#a80036;stroke-width:1" x1="564.5" x2="1227.5" y1="1360.758" y2="1360.758"/><text x="576.5" y="1355.825" fill="#000" font-family="sans-serif" font-size="13" lengthAdjust="spacingAndGlyphs" textLength="208">Send Building Permit &lt;vPermit&gt;</text><line style="stroke:#a80036;stroke-width:1" x1="559.5" x2="601.5" y1="1390.023" y2="1390.023"/><line style="stroke:#a80036;stroke-width:1" x1="601.5" x2="601.5" y1="1390.023" y2="1403.023"/><line style="stroke:#a80036;stroke-width:1" x1="560.5" x2="601.5" y1="1403.023" y2="1403.023"/><polygon fill="#A80036" points="570.5 1399.023 560.5 1403.023 570.5 1407.023 566.5 1403.023" style="stroke:#a80036;stroke-width:1"/><text x="566.5" y="1384.957" fill="#000" font-family="sans-serif" font-size="13" lengthAdjust="spacingAndGlyphs" textLength="88">Store vPermit</text><rect style="stroke:#eee;stroke-width:1" width="1435" height="3" x="3" y="1433.918" fill="#EEE" filter="url(#f1j2xdxjcgtynb)"/><line style="stroke:#000;stroke-width:1" x1="3" x2="1438" y1="1433.918" y2="1433.918"/><line style="stroke:#000;stroke-width:1" x1="3" x2="1438" y1="1436.918" y2="1436.918"/><rect style="stroke:#000;stroke-width:2" width="471" height="27.789" x="485" y="1421.023" fill="#EEE" filter="url(#f1j2xdxjcgtynb)"/><text x="491" y="1440.803" fill="#000" font-family="sans-serif" font-size="17" font-weight="bold" lengthAdjust="spacingAndGlyphs" textLength="457">Story 5 - City Inspector Performs Site Inspection</text><polygon fill="#FBFB77" points="484 1463.813 484 1594.813 1303 1594.813 1303 1473.813 1293 1463.813 484 1463.813" filter="url(#f1j2xdxjcgtynb)" style="stroke:#a80036;stroke-width:1"/><line style="stroke:#a80036;stroke-width:1" x1="1293" x2="1293" y1="1463.813" y2="1473.813"/><line style="stroke:#a80036;stroke-width:1" x1="1303" x2="1293" y1="1473.813" y2="1473.813"/><text x="626" y="1480.879" fill="#000" font-family="sans-serif" font-size="13" lengthAdjust="spacingAndGlyphs" textLength="470">City Inspector arrives at home owner&apos;s job site to perform inspection. First</text><text x="626" y="1496.012" fill="#000" font-family="sans-serif" font-size="13" lengthAdjust="spacingAndGlyphs" textLength="449">step is to validate that the required building permit is in place and that</text><text x="626" y="1511.145" fill="#000" font-family="sans-serif" font-size="13" lengthAdjust="spacingAndGlyphs" textLength="522">the contractors on site are covered by Workplace Safety Agency (WSA) insurance.</text><text x="626" y="1541.411" fill="#000" font-family="sans-serif" font-size="13" lengthAdjust="spacingAndGlyphs" textLength="482">City Inspector requests building permit from home owner, receiving a digital</text><text x="626" y="1556.543" fill="#000" font-family="sans-serif" font-size="13" lengthAdjust="spacingAndGlyphs" textLength="480">copy of the building permit. Inspector requests Contractor&apos;s WSA Clearance</text><text x="626" y="1571.676" fill="#000" font-family="sans-serif" font-size="13" lengthAdjust="spacingAndGlyphs" textLength="492">Letter from Home Owner for Acme and that each job site employee works for</text><text x="626" y="1586.809" fill="#000" font-family="sans-serif" font-size="13" lengthAdjust="spacingAndGlyphs" textLength="491">Acme. Permit, Clearance Letter, and Employee Badges are proved (as valid).</text><polygon fill="#A80036" points="570.5 1620.875 560.5 1624.875 570.5 1628.875 566.5 1624.875" style="stroke:#a80036;stroke-width:1"/><line style="stroke:#a80036;stroke-width:1" x1="564.5" x2="1376.5" y1="1624.875" y2="1624.875"/><text x="576.5" y="1619.942" fill="#000" font-family="sans-serif" font-size="13" lengthAdjust="spacingAndGlyphs" textLength="194">Requests information package</text><polygon fill="#A80036" points="1365.5 1650.008 1375.5 1654.008 1365.5 1658.008 1369.5 1654.008" style="stroke:#a80036;stroke-width:1"/><line style="stroke:#a80036;stroke-width:1" x1="559.5" x2="1371.5" y1="1654.008" y2="1654.008"/><text x="566.5" y="1649.075" fill="#000" font-family="sans-serif" font-size="13" lengthAdjust="spacingAndGlyphs" textLength="214">provides copy of Clearance Letter</text><polygon fill="#A80036" points="1365.5 1679.141 1375.5 1683.141 1365.5 1687.141 1369.5 1683.141" style="stroke:#a80036;stroke-width:1"/><line style="stroke:#a80036;stroke-width:1" x1="559.5" x2="1371.5" y1="1683.141" y2="1683.141"/><text x="566.5" y="1678.207" fill="#000" font-family="sans-serif" font-size="13" lengthAdjust="spacingAndGlyphs" textLength="204">provides copy of Building Permit</text><rect style="stroke:#eee;stroke-width:1" width="1435" height="3" x="3" y="1714.168" fill="#EEE" filter="url(#f1j2xdxjcgtynb)"/><line style="stroke:#000;stroke-width:1" x1="3" x2="1438" y1="1714.168" y2="1714.168"/><line style="stroke:#000;stroke-width:1" x1="3" x2="1438" y1="1717.168" y2="1717.168"/><rect style="stroke:#000;stroke-width:2" width="628" height="27.789" x="406.5" y="1701.273" fill="#EEE" filter="url(#f1j2xdxjcgtynb)"/><text x="412.5" y="1721.053" fill="#000" font-family="sans-serif" font-size="17" font-weight="bold" lengthAdjust="spacingAndGlyphs" textLength="614">Story 7 Acme Assigns An Employee to the Home Addition Project</text><line style="stroke:#a80036;stroke-width:1" x1="793.5" x2="835.5" y1="1760.195" y2="1760.195"/><line style="stroke:#a80036;stroke-width:1" x1="835.5" x2="835.5" y1="1760.195" y2="1773.195"/><line style="stroke:#a80036;stroke-width:1" x1="794.5" x2="835.5" y1="1773.195" y2="1773.195"/><polygon fill="#A80036" points="804.5 1769.195 794.5 1773.195 804.5 1777.195 800.5 1773.195" style="stroke:#a80036;stroke-width:1"/><text x="800.5" y="1755.129" fill="#000" font-family="sans-serif" font-size="13" lengthAdjust="spacingAndGlyphs" textLength="260">Assemble Employee Badge info package</text><polygon fill="#A80036" points="1055.5 1798.195 1065.5 1802.195 1055.5 1806.195 1059.5 1802.195" style="stroke:#a80036;stroke-width:1"/><line style="stroke:#a80036;stroke-width:1" x1="793.5" x2="1061.5" y1="1802.195" y2="1802.195"/><text x="800.5" y="1797.262" fill="#000" font-family="sans-serif" font-size="13" lengthAdjust="spacingAndGlyphs" textLength="85">Send vBadge</text><line style="stroke:#a80036;stroke-width:1" x1="1067.5" x2="1109.5" y1="1831.461" y2="1831.461"/><line style="stroke:#a80036;stroke-width:1" x1="1109.5" x2="1109.5" y1="1831.461" y2="1844.461"/><line style="stroke:#a80036;stroke-width:1" x1="1068.5" x2="1109.5" y1="1844.461" y2="1844.461"/><polygon fill="#A80036" points="1078.5 1840.461 1068.5 1844.461 1078.5 1848.461 1074.5 1844.461" style="stroke:#a80036;stroke-width:1"/><text x="1074.5" y="1826.395" fill="#000" font-family="sans-serif" font-size="13" lengthAdjust="spacingAndGlyphs" textLength="87">Store vBadge</text><rect style="stroke:#eee;stroke-width:1" width="1435" height="3" x="3" y="1875.355" fill="#EEE" filter="url(#f1j2xdxjcgtynb)"/><line style="stroke:#000;stroke-width:1" x1="3" x2="1438" y1="1875.355" y2="1875.355"/><line style="stroke:#000;stroke-width:1" x1="3" x2="1438" y1="1878.355" y2="1878.355"/><rect style="stroke:#000;stroke-width:2" width="410" height="27.789" x="515.5" y="1862.461" fill="#EEE" filter="url(#f1j2xdxjcgtynb)"/><text x="521.5" y="1882.241" fill="#000" font-family="sans-serif" font-size="17" font-weight="bold" lengthAdjust="spacingAndGlyphs" textLength="396">Story 8 - Home Owner Verifies Contractor</text><polygon fill="#A80036" points="781.5 1917.25 791.5 1921.25 781.5 1925.25 785.5 1921.25" style="stroke:#a80036;stroke-width:1"/><line style="stroke:#a80036;stroke-width:1" x1="559.5" x2="787.5" y1="1921.25" y2="1921.25"/><text x="566.5" y="1916.317" fill="#000" font-family="sans-serif" font-size="13" lengthAdjust="spacingAndGlyphs" textLength="162">Request Clearance Letter</text><polygon fill="#A80036" points="570.5 1946.383 560.5 1950.383 570.5 1954.383 566.5 1950.383" style="stroke:#a80036;stroke-width:1"/><line style="stroke:#a80036;stroke-width:1" x1="564.5" x2="792.5" y1="1950.383" y2="1950.383"/><text x="576.5" y="1945.45" fill="#000" font-family="sans-serif" font-size="13" lengthAdjust="spacingAndGlyphs" textLength="124">Provide copy of vCL</text><line style="stroke:#a80036;stroke-width:1" x1="559.5" x2="601.5" y1="1979.648" y2="1979.648"/><line style="stroke:#a80036;stroke-width:1" x1="601.5" x2="601.5" y1="1979.648" y2="1992.648"/><line style="stroke:#a80036;stroke-width:1" x1="560.5" x2="601.5" y1="1992.648" y2="1992.648"/><polygon fill="#A80036" points="570.5 1988.648 560.5 1992.648 570.5 1996.648 566.5 1992.648" style="stroke:#a80036;stroke-width:1"/><text x="566.5" y="1974.582" fill="#000" font-family="sans-serif" font-size="13" lengthAdjust="spacingAndGlyphs" textLength="62">Store vCL</text><polygon fill="#A80036" points="280.5 2017.648 270.5 2021.648 280.5 2025.648 276.5 2021.648" style="stroke:#a80036;stroke-width:1"/><line style="stroke:#a80036;stroke-width:1" x1="274.5" x2="558.5" y1="2021.648" y2="2021.648"/><text x="286.5" y="2016.715" fill="#000" font-family="sans-serif" font-size="13" lengthAdjust="spacingAndGlyphs" textLength="234">Subscribe for Revocation Notification</text><polygon fill="#A80036" points="547.5 2046.781 557.5 2050.781 547.5 2054.781 551.5 2050.781" style="stroke:#a80036;stroke-width:1"/><line style="stroke:#a80036;stroke-width:1" x1="269.5" x2="553.5" y1="2050.781" y2="2050.781"/><text x="276.5" y="2045.848" fill="#000" font-family="sans-serif" font-size="13" lengthAdjust="spacingAndGlyphs" textLength="77">Confirm sub</text><rect style="stroke:#000;stroke-width:2" width="646" height="117.531" x="468.5" y="2065.914" fill="none"/><polygon fill="#EEE" points="468.5 2065.914 545.5 2065.914 545.5 2072.914 535.5 2082.914 468.5 2082.914 468.5 2065.914" style="stroke:#000;stroke-width:2"/><text x="483.5" y="2078.981" fill="#000" font-family="sans-serif" font-size="13" font-weight="bold" lengthAdjust="spacingAndGlyphs" textLength="32">loop</text><text x="560.5" y="2078.124" fill="#000" font-family="sans-serif" font-size="11" font-weight="bold" lengthAdjust="spacingAndGlyphs" textLength="184">[for each Employee of Acme]</text><polygon fill="#A80036" points="1055.5 2100.047 1065.5 2104.047 1055.5 2108.047 1059.5 2104.047" style="stroke:#a80036;stroke-width:1"/><line style="stroke:#a80036;stroke-width:1" x1="559.5" x2="1061.5" y1="2104.047" y2="2104.047"/><text x="566.5" y="2099.114" fill="#000" font-family="sans-serif" font-size="13" lengthAdjust="spacingAndGlyphs" textLength="104">Request vBadge</text><polygon fill="#A80036" points="570.5 2129.18 560.5 2133.18 570.5 2137.18 566.5 2133.18" style="stroke:#a80036;stroke-width:1"/><line style="stroke:#a80036;stroke-width:1" x1="564.5" x2="1066.5" y1="2133.18" y2="2133.18"/><text x="576.5" y="2128.247" fill="#000" font-family="sans-serif" font-size="13" lengthAdjust="spacingAndGlyphs" textLength="99">Provide vBadge</text><line style="stroke:#a80036;stroke-width:1" x1="559.5" x2="601.5" y1="2162.445" y2="2162.445"/><line style="stroke:#a80036;stroke-width:1" x1="601.5" x2="601.5" y1="2162.445" y2="2175.445"/><line style="stroke:#a80036;stroke-width:1" x1="560.5" x2="601.5" y1="2175.445" y2="2175.445"/><polygon fill="#A80036" points="570.5 2171.445 560.5 2175.445 570.5 2179.445 566.5 2175.445" style="stroke:#a80036;stroke-width:1"/><text x="566.5" y="2157.379" fill="#000" font-family="sans-serif" font-size="13" lengthAdjust="spacingAndGlyphs" textLength="177">Verify vBadge is Acceptable</text><rect style="stroke:#eee;stroke-width:1" width="1435" height="3" x="3" y="2213.34" fill="#EEE" filter="url(#f1j2xdxjcgtynb)"/><line style="stroke:#000;stroke-width:1" x1="3" x2="1438" y1="2213.34" y2="2213.34"/><line style="stroke:#000;stroke-width:1" x1="3" x2="1438" y1="2216.34" y2="2216.34"/><rect style="stroke:#000;stroke-width:2" width="410" height="27.789" x="515.5" y="2200.445" fill="#EEE" filter="url(#f1j2xdxjcgtynb)"/><text x="521.5" y="2220.225" fill="#000" font-family="sans-serif" font-size="17" font-weight="bold" lengthAdjust="spacingAndGlyphs" textLength="396">Story 9 - Contractor Verifies Home Owner</text><rect style="stroke:#eee;stroke-width:1" width="1435" height="3" x="3" y="2261.129" fill="#EEE" filter="url(#f1j2xdxjcgtynb)"/><line style="stroke:#000;stroke-width:1" x1="3" x2="1438" y1="2261.129" y2="2261.129"/><line style="stroke:#000;stroke-width:1" x1="3" x2="1438" y1="2264.129" y2="2264.129"/><rect style="stroke:#000;stroke-width:2" width="491" height="27.789" x="475" y="2248.234" fill="#EEE" filter="url(#f1j2xdxjcgtynb)"/><text x="481" y="2268.014" fill="#000" font-family="sans-serif" font-size="17" font-weight="bold" lengthAdjust="spacingAndGlyphs" textLength="477">Story 10 - WSA Inspector Performs Site Inspection</text><rect style="stroke:#eee;stroke-width:1" width="1435" height="3" x="3" y="2308.918" fill="#EEE" filter="url(#f1j2xdxjcgtynb)"/><line style="stroke:#000;stroke-width:1" x1="3" x2="1438" y1="2308.918" y2="2308.918"/><line style="stroke:#000;stroke-width:1" x1="3" x2="1438" y1="2311.918" y2="2311.918"/><rect style="stroke:#000;stroke-width:2" width="174" height="27.789" x="633.5" y="2296.023" fill="#EEE" filter="url(#f1j2xdxjcgtynb)"/><text x="639.5" y="2315.803" fill="#000" font-family="sans-serif" font-size="17" font-weight="bold" lengthAdjust="spacingAndGlyphs" textLength="160">WSA Revokes CL</text><polygon fill="#FBFB77" points="219 2338.813 219 2363.813 844 2363.813 844 2348.813 834 2338.813 219 2338.813" filter="url(#f1j2xdxjcgtynb)" style="stroke:#a80036;stroke-width:1"/><line style="stroke:#a80036;stroke-width:1" x1="834" x2="834" y1="2338.813" y2="2348.813"/><line style="stroke:#a80036;stroke-width:1" x1="844" x2="834" y1="2348.813" y2="2348.813"/><text x="420.5" y="2355.879" fill="#000" font-family="sans-serif" font-size="13" lengthAdjust="spacingAndGlyphs" textLength="209">Advise subscribers of Revocation</text><polygon fill="#A80036" points="547.5 2374.945 557.5 2378.945 547.5 2382.945 551.5 2378.945" style="stroke:#a80036;stroke-width:1"/><line style="stroke:#a80036;stroke-width:1" x1="269.5" x2="553.5" y1="2378.945" y2="2378.945"/><polygon fill="#A80036" points="781.5 2388.945 791.5 2392.945 781.5 2396.945 785.5 2392.945" style="stroke:#a80036;stroke-width:1"/><line style="stroke:#a80036;stroke-width:1" x1="269.5" x2="787.5" y1="2392.945" y2="2392.945"/></g></svg>